<svg width="736" height="153" viewBox="0 0 736 153" fill="none" xmlns="http://www.w3.org/2000/svg">
<path d="M35.064 24.9964H48.096C48.624 24.9964 49.08 25.1884 49.464 25.5724C49.848 25.9564 50.04 26.4124 50.04 26.9404V73.4524C50.04 73.9804 49.848 74.4364 49.464 74.8204C49.08 75.2044 48.624 75.3964 48.096 75.3964H36.72C35.472 75.3964 34.488 74.8444 33.768 73.7404L21.6 55.3804V73.4524C21.6 73.9804 21.408 74.4364 21.024 74.8204C20.64 75.2044 20.184 75.3964 19.656 75.3964H6.62399C6.09599 75.3964 5.63999 75.2044 5.25599 74.8204C4.87199 74.4364 4.67999 73.9804 4.67999 73.4524V26.9404C4.67999 26.4124 4.87199 25.9564 5.25599 25.5724C5.63999 25.1884 6.09599 24.9964 6.62399 24.9964H18C19.344 24.9964 20.328 25.5484 20.952 26.6524L33.12 46.5964V26.9404C33.12 26.4124 33.312 25.9564 33.696 25.5724C34.08 25.1884 34.536 24.9964 35.064 24.9964ZM57.2231 64.6684C57.2231 58.1884 62.4791 54.0364 72.9911 52.2124L80.6231 50.9884C80.6231 49.5484 80.5031 48.5884 80.2631 48.1084C80.0231 47.5804 79.4471 47.3164 78.5351 47.3164C77.6711 47.3164 76.8071 47.7004 75.9431 48.4684C75.0791 49.2364 74.2631 49.6204 73.4951 49.6204H61.2551C60.1991 49.6204 59.6711 49.1164 59.6711 48.1084C59.6711 47.0524 60.0311 45.9484 60.7511 44.7964C61.5191 43.5964 62.5991 42.4204 63.9911 41.2684C65.4311 40.1164 67.4231 39.1564 69.9671 38.3884C72.5591 37.6204 75.4391 37.2364 78.6071 37.2364C85.0391 37.2364 89.8631 38.5804 93.0791 41.2684C96.2951 43.9564 97.9031 47.7964 97.9031 52.7884V73.4524C97.9031 73.9804 97.7111 74.4364 97.3271 74.8204C96.9431 75.2044 96.4871 75.3964 95.9591 75.3964H83.3591C82.8311 75.3964 82.3751 75.2044 81.9911 74.8204C81.6071 74.4364 81.4151 73.9804 81.4151 73.4524V71.4364C79.1591 74.5564 75.8711 76.1164 71.5511 76.1164C67.2311 76.1164 63.7511 75.0364 61.1111 72.8764C58.5191 70.6684 57.2231 67.9324 57.2231 64.6684ZM76.1591 65.4604C79.2791 65.4604 80.8391 63.5884 80.8391 59.8444L76.5911 60.7804C74.4791 61.2604 73.4231 62.1484 73.4231 63.4444C73.4231 64.0204 73.6631 64.5004 74.1431 64.8844C74.6231 65.2684 75.2951 65.4604 76.1591 65.4604ZM147.117 53.5804V73.4524C147.117 73.9804 146.925 74.4364 146.541 74.8204C146.157 75.2044 145.701 75.3964 145.173 75.3964H131.421C130.893 75.3964 130.437 75.2044 130.053 74.8204C129.669 74.4364 129.477 73.9804 129.477 73.4524V54.0844C129.477 51.4444 128.277 50.1244 125.877 50.1244C123.477 50.1244 122.277 51.4444 122.277 54.0844V73.4524C122.277 73.9804 122.085 74.4364 121.701 74.8204C121.317 75.2044 120.861 75.3964 120.333 75.3964H106.653C106.125 75.3964 105.669 75.2044 105.285 74.8204C104.901 74.4364 104.709 73.9804 104.709 73.4524V39.9004C104.709 39.3724 104.901 38.9164 105.285 38.5324C105.669 38.1484 106.125 37.9564 106.653 37.9564H119.253C119.781 37.9564 120.237 38.1484 120.621 38.5324C121.005 38.9164 121.197 39.3724 121.197 39.9004V42.2764C122.445 40.7884 124.125 39.5884 126.237 38.6764C128.397 37.7164 130.701 37.2364 133.149 37.2364C137.085 37.2364 140.397 38.6284 143.085 41.4124C145.773 44.1484 147.117 48.2044 147.117 53.5804ZM152.848 59.1244V54.2284C152.848 48.7564 154.792 44.5564 158.68 41.6284C162.568 38.7004 167.584 37.2364 173.728 37.2364C179.872 37.2364 184.888 38.7004 188.776 41.6284C192.664 44.5564 194.608 48.7564 194.608 54.2284V59.1244C194.608 64.6444 192.736 68.8684 188.992 71.7964C185.248 74.6764 180.16 76.1164 173.728 76.1164C167.296 76.1164 162.208 74.6764 158.464 71.7964C154.72 68.8684 152.848 64.6444 152.848 59.1244ZM176.968 59.7004V53.6524C176.968 51.8284 176.728 50.5564 176.248 49.8364C175.768 49.1164 174.928 48.7564 173.728 48.7564C172.528 48.7564 171.688 49.1164 171.208 49.8364C170.728 50.5564 170.488 51.8284 170.488 53.6524V59.7004C170.488 61.6204 170.728 62.9164 171.208 63.5884C171.688 64.2604 172.528 64.5964 173.728 64.5964C174.928 64.5964 175.768 64.2364 176.248 63.5164C176.728 62.7964 176.968 61.5244 176.968 59.7004Z" fill="#2D9E1A"/>
<path d="M193.361 22.1976H235.553C236.081 22.1976 236.537 22.3896 236.921 22.7736C237.305 23.1576 237.497 23.6136 237.497 24.1416V35.7336C237.497 36.2616 237.305 36.7176 236.921 37.1016C236.537 37.4856 236.081 37.6776 235.553 37.6776H223.601V70.6536C223.601 71.1816 223.409 71.6376 223.025 72.0216C222.641 72.4056 222.185 72.5976 221.657 72.5976H207.257C206.729 72.5976 206.273 72.4056 205.889 72.0216C205.505 71.6376 205.313 71.1816 205.313 70.6536V37.6776H193.361C192.833 37.6776 192.377 37.4856 191.993 37.1016C191.609 36.7176 191.417 36.2616 191.417 35.7336V24.1416C191.417 23.6136 191.609 23.1576 191.993 22.7736C192.377 22.3896 192.833 22.1976 193.361 22.1976ZM281.287 58.1256H259.831V58.4856C259.831 61.4136 260.767 62.8776 262.639 62.8776C263.167 62.8776 263.815 62.4936 264.583 61.7256C265.351 60.9576 266.191 60.5736 267.103 60.5736H280.711C281.767 60.5736 282.295 61.1016 282.295 62.1576C282.295 64.5096 280.519 66.9576 276.967 69.5016C273.463 72.0456 268.687 73.3176 262.639 73.3176C256.639 73.3176 251.719 71.7576 247.879 68.6376C244.087 65.4696 242.191 61.1256 242.191 55.6056V52.1496C242.191 46.9176 244.135 42.6696 248.023 39.4056C251.911 36.0936 256.999 34.4376 263.287 34.4376C269.623 34.4376 274.519 36.2856 277.975 39.9816C281.479 43.6776 283.231 48.3576 283.231 54.0216V56.1816C283.231 56.7096 283.039 57.1656 282.655 57.5496C282.271 57.9336 281.815 58.1256 281.287 58.1256ZM265.591 48.8376C265.591 45.9576 264.631 44.5176 262.711 44.5176C260.791 44.5176 259.831 45.9576 259.831 48.8376V49.1256H265.591V48.8376ZM305.886 51.3576V56.3976C305.886 58.0296 306.102 59.2056 306.534 59.9256C306.966 60.6456 307.638 61.0056 308.55 61.0056C309.462 61.0056 310.086 60.8616 310.422 60.5736C310.758 60.2376 311.094 59.6376 311.43 58.7736C311.814 57.8616 312.51 57.4056 313.518 57.4056H327.558C328.086 57.4056 328.542 57.5976 328.926 57.9816C329.31 58.3656 329.502 58.8696 329.502 59.4936C329.502 60.1176 329.286 60.9576 328.854 62.0136C328.422 63.0696 327.678 64.2696 326.622 65.6136C325.566 66.9576 324.27 68.2056 322.734 69.3576C321.198 70.4616 319.182 71.3976 316.686 72.1656C314.19 72.9336 311.43 73.3176 308.406 73.3176C302.406 73.3176 297.534 71.7576 293.79 68.6376C290.094 65.4696 288.246 61.1016 288.246 55.5336V52.2216C288.246 46.6536 290.094 42.3096 293.79 39.1896C297.534 36.0216 302.406 34.4376 308.406 34.4376C311.958 34.4376 315.174 34.9896 318.054 36.0936C320.934 37.1496 323.142 38.4696 324.678 40.0536C326.262 41.5896 327.462 43.1016 328.278 44.5896C329.094 46.0776 329.502 47.2296 329.502 48.0456C329.502 48.8136 329.31 49.3896 328.926 49.7736C328.542 50.1576 328.086 50.3496 327.558 50.3496H313.518C312.606 50.3496 311.91 49.8696 311.43 48.9096C310.758 47.4696 309.87 46.7496 308.766 46.7496C306.846 46.7496 305.886 48.2856 305.886 51.3576ZM353.168 51.2856V70.6536C353.168 71.1816 352.976 71.6376 352.592 72.0216C352.208 72.4056 351.752 72.5976 351.224 72.5976H337.184C336.656 72.5976 336.2 72.4056 335.816 72.0216C335.432 71.6376 335.24 71.1816 335.24 70.6536V23.4216C335.24 22.8936 335.432 22.4376 335.816 22.0536C336.2 21.6696 336.656 21.4776 337.184 21.4776H351.224C351.752 21.4776 352.208 21.6696 352.592 22.0536C352.976 22.4376 353.168 22.8936 353.168 23.4216V38.9016C355.904 35.9256 359.408 34.4376 363.68 34.4376C367.952 34.4376 371.48 35.8296 374.264 38.6136C377.048 41.3976 378.44 45.4536 378.44 50.7816V70.5816C378.44 71.1096 378.248 71.5656 377.864 71.9496C377.48 72.3336 377.024 72.5256 376.496 72.5256H362.384C361.856 72.5256 361.4 72.3336 361.016 71.9496C360.632 71.5656 360.44 71.1096 360.44 70.5816V51.2856C360.44 48.6456 359.216 47.3256 356.768 47.3256C354.368 47.3256 353.168 48.6456 353.168 51.2856ZM427.71 50.7816V70.6536C427.71 71.1816 427.518 71.6376 427.134 72.0216C426.75 72.4056 426.294 72.5976 425.766 72.5976H412.014C411.486 72.5976 411.03 72.4056 410.646 72.0216C410.262 71.6376 410.07 71.1816 410.07 70.6536V51.2856C410.07 48.6456 408.87 47.3256 406.47 47.3256C404.07 47.3256 402.87 48.6456 402.87 51.2856V70.6536C402.87 71.1816 402.678 71.6376 402.294 72.0216C401.91 72.4056 401.454 72.5976 400.926 72.5976H387.246C386.718 72.5976 386.262 72.4056 385.878 72.0216C385.494 71.6376 385.302 71.1816 385.302 70.6536V37.1016C385.302 36.5736 385.494 36.1176 385.878 35.7336C386.262 35.3496 386.718 35.1576 387.246 35.1576H399.846C400.374 35.1576 400.83 35.3496 401.214 35.7336C401.598 36.1176 401.79 36.5736 401.79 37.1016V39.4776C403.038 37.9896 404.718 36.7896 406.83 35.8776C408.99 34.9176 411.294 34.4376 413.742 34.4376C417.678 34.4376 420.99 35.8296 423.678 38.6136C426.366 41.3496 427.71 45.4056 427.71 50.7816ZM433.441 56.3256V51.4296C433.441 45.9576 435.385 41.7576 439.273 38.8296C443.161 35.9016 448.177 34.4376 454.321 34.4376C460.465 34.4376 465.481 35.9016 469.369 38.8296C473.257 41.7576 475.201 45.9576 475.201 51.4296V56.3256C475.201 61.8456 473.329 66.0696 469.585 68.9976C465.841 71.8776 460.753 73.3176 454.321 73.3176C447.889 73.3176 442.801 71.8776 439.057 68.9976C435.313 66.0696 433.441 61.8456 433.441 56.3256ZM457.561 56.9016V50.8536C457.561 49.0296 457.321 47.7576 456.841 47.0376C456.361 46.3176 455.521 45.9576 454.321 45.9576C453.121 45.9576 452.281 46.3176 451.801 47.0376C451.321 47.7576 451.081 49.0296 451.081 50.8536V56.9016C451.081 58.8216 451.321 60.1176 451.801 60.7896C452.281 61.4616 453.121 61.7976 454.321 61.7976C455.521 61.7976 456.361 61.4376 456.841 60.7176C457.321 59.9976 457.561 58.7256 457.561 56.9016ZM496.181 72.5976H483.293C482.765 72.5976 482.309 72.4056 481.925 72.0216C481.541 71.6376 481.349 71.1816 481.349 70.6536V23.4216C481.349 22.8936 481.541 22.4376 481.925 22.0536C482.309 21.6696 482.765 21.4776 483.293 21.4776H496.181C496.709 21.4776 497.165 21.6696 497.549 22.0536C497.933 22.4376 498.125 22.8936 498.125 23.4216V70.6536C498.125 71.1816 497.933 71.6376 497.549 72.0216C497.165 72.4056 496.709 72.5976 496.181 72.5976ZM504.246 56.3256V51.4296C504.246 45.9576 506.19 41.7576 510.078 38.8296C513.966 35.9016 518.982 34.4376 525.126 34.4376C531.27 34.4376 536.286 35.9016 540.174 38.8296C544.062 41.7576 546.006 45.9576 546.006 51.4296V56.3256C546.006 61.8456 544.134 66.0696 540.39 68.9976C536.646 71.8776 531.558 73.3176 525.126 73.3176C518.694 73.3176 513.606 71.8776 509.862 68.9976C506.118 66.0696 504.246 61.8456 504.246 56.3256ZM528.366 56.9016V50.8536C528.366 49.0296 528.126 47.7576 527.646 47.0376C527.166 46.3176 526.326 45.9576 525.126 45.9576C523.926 45.9576 523.086 46.3176 522.606 47.0376C522.126 47.7576 521.886 49.0296 521.886 50.8536V56.9016C521.886 58.8216 522.126 60.1176 522.606 60.7896C523.086 61.4616 523.926 61.7976 525.126 61.7976C526.326 61.7976 527.166 61.4376 527.646 60.7176C528.126 59.9976 528.366 58.7256 528.366 56.9016ZM551.074 54.6696V50.9976C551.074 45.6216 552.514 41.5176 555.394 38.6856C558.274 35.8536 561.946 34.4376 566.41 34.4376C570.874 34.4376 574.402 36.0696 576.994 39.3336V37.1016C576.994 36.5736 577.186 36.1176 577.57 35.7336C577.954 35.3496 578.41 35.1576 578.938 35.1576H591.538C592.066 35.1576 592.522 35.3496 592.906 35.7336C593.29 36.1176 593.482 36.5736 593.482 37.1016L593.554 71.3736C593.554 77.1336 591.682 81.4056 587.938 84.1896C584.194 87.0216 579.274 88.4376 573.178 88.4376C569.386 88.4376 566.002 87.9096 563.026 86.8536C560.05 85.8456 557.818 84.5976 556.33 83.1096C553.306 80.1336 551.794 77.6136 551.794 75.5496C551.794 75.0216 551.986 74.5656 552.37 74.1816C552.754 73.7976 553.21 73.6056 553.738 73.6056H567.778C568.642 73.6056 569.338 74.1336 569.866 75.1896C570.442 76.2936 571.426 76.8456 572.818 76.8456C574.882 76.8456 575.914 75.5496 575.914 72.9576V67.8456C573.562 69.9096 570.226 70.9416 565.906 70.9416C561.634 70.9416 558.082 69.6456 555.25 67.0536C552.466 64.4616 551.074 60.3336 551.074 54.6696ZM572.314 58.4136C574.57 58.4136 575.77 57.2136 575.914 54.8136V50.9256C575.77 48.5256 574.57 47.3256 572.314 47.3256C569.914 47.3256 568.714 48.7176 568.714 51.5016V54.2376C568.714 57.0216 569.914 58.4136 572.314 58.4136Z" fill="white"/>
<path d="M616.839 27.0549H598.814V70.9025H616.839V27.0549Z" fill="white"/>
<path d="M607.826 17.7256C615.015 17.7256 620.844 13.7576 620.844 8.86281C620.844 3.96802 615.015 0 607.826 0C600.637 0 594.808 3.96802 594.808 8.86281C594.808 13.7576 600.637 17.7256 607.826 17.7256Z" fill="#2D9E1A"/>
<path d="M665.464 58.1256H644.008V58.4856C644.008 61.4136 644.944 62.8776 646.816 62.8776C647.344 62.8776 647.992 62.4936 648.76 61.7256C649.528 60.9576 650.368 60.5736 651.28 60.5736H664.888C665.944 60.5736 666.472 61.1016 666.472 62.1576C666.472 64.5096 664.696 66.9576 661.144 69.5016C657.64 72.0456 652.864 73.3176 646.816 73.3176C640.816 73.3176 635.896 71.7576 632.056 68.6376C628.264 65.4696 626.368 61.1256 626.368 55.6056V52.1496C626.368 46.9176 628.312 42.6696 632.2 39.4056C636.088 36.0936 641.176 34.4376 647.464 34.4376C653.8 34.4376 658.696 36.2856 662.152 39.9816C665.656 43.6776 667.408 48.3576 667.408 54.0216V56.1816C667.408 56.7096 667.216 57.1656 666.832 57.5496C666.448 57.9336 665.992 58.1256 665.464 58.1256ZM649.768 48.8376C649.768 45.9576 648.808 44.5176 646.888 44.5176C644.968 44.5176 644.008 45.9576 644.008 48.8376V49.1256H649.768V48.8376ZM693.446 62.2296C693.446 61.7496 693.326 61.3656 693.086 61.0776C692.462 60.3096 690.158 59.5656 686.174 58.8456C682.19 58.0776 678.95 56.7576 676.454 54.8856C674.006 52.9656 672.782 50.3016 672.782 46.8936C672.782 43.4856 674.414 40.5576 677.678 38.1096C680.942 35.6616 685.334 34.4376 690.854 34.4376C696.422 34.4376 700.982 35.5896 704.534 37.8936C708.086 40.1976 709.862 42.5256 709.862 44.8776C709.862 45.4056 709.694 45.8616 709.358 46.2456C709.07 46.6296 708.71 46.8216 708.278 46.8216H696.182C695.462 46.8216 694.574 46.4376 693.518 45.6696C692.462 44.9016 691.67 44.5176 691.142 44.5176C690.038 44.5176 689.486 44.9016 689.486 45.6696C689.486 46.1496 689.606 46.5336 689.846 46.8216C690.47 47.5416 693.086 48.2376 697.694 48.9096C702.302 49.5816 705.734 51.0696 707.99 53.3736C710.294 55.6296 711.446 58.1496 711.446 60.9336C711.446 64.8216 709.694 67.8696 706.19 70.0776C702.686 72.2856 697.718 73.3896 691.286 73.3896C687.878 73.3896 684.854 73.0056 682.214 72.2376C679.574 71.4696 677.558 70.5096 676.166 69.3576C673.43 67.1016 672.062 64.9896 672.062 63.0216C672.062 62.4936 672.23 62.0376 672.566 61.6536C672.902 61.2696 673.31 61.0776 673.79 61.0776H686.318C686.99 61.0776 687.854 61.4616 688.91 62.2296C690.014 62.9496 691.046 63.3096 692.006 63.3096C692.966 63.3096 693.446 62.9496 693.446 62.2296Z" fill="white"/>
</svg>
